<?xml version="1.0" standalone="no"?>
<!DOCTYPE svg PUBLIC "-//W3C//DTD SVG 1.1//EN" "http://www.w3.org/Graphics/SVG/1.1/DTD/svg11.dtd" >
<svg xmlns="http://www.w3.org/2000/svg">
<metadata>Generated by IcoMoon</metadata>
<defs>
<font id="icomoon" horiz-adv-x="1024">
<font-face units-per-em="1024" ascent="960" descent="-64" />
<missing-glyph horiz-adv-x="1024" />
<glyph unicode="&#x20;" horiz-adv-x="512" d="" />
<glyph unicode="&#xe900;" glyph-name="arrow-bottom" d="M513.92 75.2c-8.32 0-16.32 3.2-22.72 9.28-12.48 12.48-12.48 32.64 0 45.12l304.96 304.96c12.48 12.48 32.64 12.48 45.12 0s12.48-32.64 0-45.12l-304.96-304.96c-6.4-6.4-14.4-9.28-22.72-9.28zM510.080 75.2c-8.32 0-16.32 3.2-22.72 9.28l-304.96 304.96c-12.48 12.48-12.48 32.64 0 45.12s32.64 12.48 45.12 0l304.96-304.96c12.48-12.48 12.48-32.64 0-45.12-6.4-6.4-14.4-9.28-22.72-9.28zM512.96 73.6c-17.6 0-32 14.4-32 32v684.8c0 17.6 14.4 32 32 32s32-14.4 32-32v-684.48c0-17.6-14.4-32-32-32z" />
<glyph unicode="&#xe901;" glyph-name="arrow-left" d="M476.16 109.12c-8.32 0-16.32 3.2-22.72 9.28l-304.96 304.96c-12.48 12.48-12.48 32.64 0 45.12s32.64 12.48 45.12 0l304.96-304.96c12.48-12.48 12.48-32.64 0-45.12-6.4-6.4-14.4-9.28-22.72-9.28zM171.2 417.92c-8.32 0-16.32 3.2-22.72 9.28-12.48 12.48-12.48 32.64 0 45.12l304.96 304.96c12.48 12.48 32.64 12.48 45.12 0s12.48-32.64 0-45.12l-304.96-304.96c-6.4-6.4-14.4-9.28-22.72-9.28zM854.4 415.040h-684.8c-17.6 0-32 14.4-32 32s14.4 32 32 32h684.48c17.6 0 32-14.4 32-32s-14.4-32-32-32z" />
<glyph unicode="&#xe902;" glyph-name="arrow-right" d="M852.8 417.92c-8.32 0-16.32 3.2-22.72 9.28l-304.96 304.96c-12.48 12.48-12.48 32.64 0 45.12s32.64 12.48 45.12 0l304.96-304.96c12.48-12.48 12.48-32.64 0-45.12-6.4-6.4-14.4-9.28-22.72-9.28zM547.84 109.12c-8.32 0-16.32 3.2-22.72 9.28-12.48 12.48-12.48 32.64 0 45.12l304.96 304.96c12.48 12.48 32.64 12.48 45.12 0s12.48-32.64 0-45.12l-304.96-304.96c-6.4-6.4-14.4-9.28-22.72-9.28zM854.4 416.96h-684.8c-17.6 0-32 14.4-32 32s14.4 32 32 32h684.48c17.6 0 32-14.4 32-32s-14.4-32-32-32z" />
<glyph unicode="&#xe903;" glyph-name="arrow-top" d="M205.12 451.84c-8.32 0-16.32 3.2-22.72 9.28-12.48 12.48-12.48 32.64 0 45.12l304.96 305.28c12.48 12.48 32.64 12.48 45.12 0s12.48-32.64 0-45.12l-304.64-304.96c-6.4-6.4-14.4-9.28-22.72-9.28zM818.88 451.84c-8.32 0-16.32 3.2-22.72 9.28l-304.96 304.96c-12.48 12.48-12.48 32.64 0 45.12s32.64 12.48 45.12 0l304.96-304.96c12.48-12.48 12.48-32.64 0-45.12-6.4-6.4-14.4-9.28-22.72-9.28zM511.040 73.6c-17.6 0-32 14.4-32 32v684.8c0 17.6 14.4 32 32 32s32-14.4 32-32v-684.48c0-17.6-14.4-32-32-32z" />
<glyph unicode="&#xe904;" glyph-name="blackspace-circle" d="M512 61.12c-213.44 0-386.88 173.44-386.88 386.88s173.44 386.88 386.88 386.88 386.88-173.44 386.88-386.88-173.44-386.88-386.88-386.88zM512 770.88c-177.92 0-322.88-144.96-322.88-322.88s144.96-322.88 322.88-322.88 322.88 144.96 322.88 322.88-144.96 322.88-322.88 322.88zM367.68 271.68c-8.32 0-16.32 3.2-22.72 9.28-12.48 12.48-12.48 32.64 0 45.12l288.64 288.64c12.48 12.48 32.64 12.48 45.12 0s12.48-32.64 0-45.12l-288.64-288.64c-6.4-6.4-14.4-9.28-22.72-9.28zM656.32 271.68c-8.32 0-16.32 3.2-22.72 9.28l-288.64 288.64c-12.48 12.48-12.48 32.64 0 45.12s32.64 12.48 45.12 0l288.64-288.64c12.48-12.48 12.48-32.64 0-45.12-6.4-6.4-14.4-9.28-22.72-9.28z" />
<glyph unicode="&#xe905;" glyph-name="close" d="M823.040 84.16c-8.32 0-16.64 3.2-23.040 9.6l-621.76 637.12c-12.48 12.8-12.16 32.96 0.64 45.12 12.48 12.16 32.96 12.16 45.12-0.64l622.080-637.44c12.48-12.8 12.16-32.96-0.64-45.12-6.080-6.080-14.4-8.96-22.4-8.96zM200.96 84.16c-8 0-16 2.88-22.4 8.96-12.8 12.48-12.8 32.64-0.64 45.12l622.080 637.44c12.48 12.8 32.64 12.8 45.12 0.64 12.8-12.48 12.8-32.64 0.64-45.12l-621.76-637.44c-6.4-6.4-14.72-9.6-23.040-9.6z" />
<glyph unicode="&#xe906;" glyph-name="download" d="M172.8 89.6c-17.6 0-32 14.4-32 32v177.92c0 17.6 14.4 32 32 32s32-14.4 32-32v-177.92c0-17.6-14.4-32-32-32zM851.2 89.6c-17.6 0-32 14.4-32 32v177.92c0 17.6 14.4 32 32 32s32-14.4 32-32v-177.92c0-17.6-14.4-32-32-32zM848.32 89.6h-672.64c-17.6 0-32 14.4-32 32s14.4 32 32 32h672.64c17.6 0 32-14.4 32-32s-14.4-32-32-32zM512 236.16c-17.6 0-32 14.4-32 32v506.24c0 17.6 14.4 32 32 32s32-14.4 32-32v-506.24c0-17.6-14.4-32-32-32zM512.32 236.16c-7.68 0-15.68 2.88-21.76 8.64l-164.8 152.32c-13.12 12.16-13.76 32.32-1.6 45.12 12.16 13.12 32.32 13.76 45.12 1.6l164.8-152.32c13.12-12.16 13.76-32.32 1.6-45.12-6.4-6.72-15.040-10.24-23.36-10.24zM511.68 236.16c-8.64 0-17.28 3.52-23.36 10.24-12.16 13.12-11.2 33.28 1.6 45.12l164.8 152.32c12.8 12.16 33.28 11.2 45.12-1.6 12.16-13.12 11.2-33.28-1.6-45.12l-164.8-152.32c-6.080-5.76-14.080-8.64-21.76-8.64z" />
<glyph unicode="&#xe907;" glyph-name="filter" d="M585.6 36.16h-147.2c-17.6 0-32 14.4-32 32v381.12l-330.56 356.8c-8.64 9.28-10.88 23.040-5.76 34.56s16.64 19.2 29.44 19.2h825.28c12.8 0 24.32-7.68 29.44-19.2s2.88-25.28-5.76-34.56l-330.56-356.8v-381.12c0-17.6-14.4-32-32-32zM470.4 100.16h83.2v361.6c0 8 2.88 15.68 8.64 21.76l289.28 312.32h-678.72l289.28-312.32c5.44-6.080 8.64-13.76 8.64-21.76v-361.6z" />
<glyph unicode="&#xe908;" glyph-name="filter-full" d="M953.92 840.64c-5.12 11.52-16.64 19.2-29.44 19.2h-824.96c-12.8 0-24.32-7.68-29.44-19.2s-2.88-25.28 5.76-34.56l330.56-356.8v-381.12c0-17.6 14.4-32 32-32h147.2c17.6 0 32 14.4 32 32v381.12l330.56 356.8c8.64 9.28 10.88 23.040 5.76 34.56z" />
<glyph unicode="&#xe909;" glyph-name="first" d="M760.32 657.28c-9.92 5.76-22.080 5.76-32 0l-314.56-181.44c-9.92-5.76-16-16.32-16-27.84s6.080-22.080 16-27.84l314.56-181.44c4.8-2.88 10.56-4.16 16-4.16s11.2 1.28 16 4.16c9.92 5.76 16 16.32 16 27.84v363.2c0 11.52-6.080 22.080-16 27.84zM279.68 664.96h32c17.673 0 32-14.327 32-32v-369.6c0-17.673-14.327-32-32-32h-32c-17.673 0-32 14.327-32 32v369.6c0 17.673 14.327 32 32 32z" />
<glyph unicode="&#xe90a;" glyph-name="folder" d="M898.24 91.52h-772.48c-17.6 0-32 14.4-32 32v648.96c0 17.6 14.4 32 32 32h281.92c34.56 0 66.88-18.88 83.84-49.28l42.88-76.48h363.84c17.6 0 32-14.4 32-32v-523.52c0-17.6-14.4-32-32-32zM158.080 155.52h708.16v459.52h-350.4c-11.52 0-22.4 6.4-27.84 16.32l-51.84 92.8c-5.76 10.24-16.32 16.32-27.84 16.32h-249.92v-584.96z" />
<glyph unicode="&#xe90b;" glyph-name="folder-open" d="M106.56 65.6c-17.6 0-32 14.4-32 32v648.96c0 17.6 14.4 32 32 32h281.92c34.56 0 66.88-18.88 83.84-49.28l42.88-76.48h363.84c17.6 0 32-14.4 32-32s-14.4-32-32-32h-382.4c-11.52 0-22.4 6.4-27.84 16.32l-51.84 92.8c-5.76 10.24-16.32 16.32-27.84 16.32h-249.92v-616.96c0-17.6-14.4-32-32-32zM774.080 53.44h-665.28c-10.88 0-21.12 5.76-26.88 14.72-5.76 9.28-6.72 20.8-1.92 30.72l185.92 395.2c5.44 11.2 16.64 18.24 29.12 18.24h665.28c10.88 0 21.12-5.76 26.88-14.72 5.76-9.28 6.72-20.8 1.92-30.72l-185.92-395.2c-5.44-11.2-16.64-18.24-29.12-18.24zM159.36 117.44h594.56l155.84 331.2h-594.56l-155.84-331.2zM878.080 469.12c-17.6 0-32 14.4-32 32v111.36c0 17.6 14.4 32 32 32s32-14.4 32-32v-111.36c0-17.6-14.4-32-32-32z" />
<glyph unicode="&#xe90c;" glyph-name="last" d="M610.24 475.84l-314.56 181.44c-9.92 5.76-22.080 5.76-32 0s-16-16.32-16-27.84v-363.2c0-11.52 6.080-22.080 16-27.84 4.8-2.88 10.56-4.16 16-4.16s11.2 1.28 16 4.16l314.56 181.44c9.92 5.76 16 16.32 16 27.84s-6.080 22.080-16 27.84zM712.32 664.96h32c17.673 0 32-14.327 32-32v-369.6c0-17.673-14.327-32-32-32h-32c-17.673 0-32 14.327-32 32v369.6c0 17.673 14.327 32 32 32z" />
<glyph unicode="&#xe90d;" glyph-name="menu" d="M830.080 672.96h-636.16c-17.6 0-32 14.4-32 32s14.4 32 32 32h636.16c17.6 0 32-14.4 32-32s-14.4-32-32-32zM830.080 416h-636.16c-17.6 0-32 14.4-32 32s14.4 32 32 32h636.16c17.6 0 32-14.4 32-32s-14.4-32-32-32zM830.080 159.040h-636.16c-17.6 0-32 14.4-32 32s14.4 32 32 32h636.16c17.6 0 32-14.4 32-32s-14.4-32-32-32z" />
<glyph unicode="&#xe90e;" glyph-name="minus" d="M816.32 416h-608.64c-17.6 0-32 14.4-32 32s14.4 32 32 32h608.64c17.6 0 32-14.4 32-32s-14.4-32-32-32z" />
<glyph unicode="&#xe90f;" glyph-name="minus-circle" d="M512 61.12c-213.44 0-386.88 173.44-386.88 386.88s173.44 386.88 386.88 386.88 386.88-173.44 386.88-386.88-173.44-386.88-386.88-386.88zM512 770.88c-177.92 0-322.88-144.96-322.88-322.88s144.96-322.88 322.88-322.88 322.88 144.96 322.88 322.88-144.96 322.88-322.88 322.88zM716.16 416h-408.32c-17.6 0-32 14.4-32 32s14.4 32 32 32h408.32c17.6 0 32-14.4 32-32s-14.4-32-32-32z" />
<glyph unicode="&#xe910;" glyph-name="next" d="M685.12 475.84l-314.56 181.44c-9.92 5.76-22.080 5.76-32 0s-16-16.32-16-27.84v-363.2c0-11.52 6.080-22.080 16-27.84 4.8-2.88 10.56-4.16 16-4.16s11.2 1.28 16 4.16l314.56 181.44c9.92 5.76 16 16.32 16 27.84s-6.080 22.080-16 27.84z" />
<glyph unicode="&#xe911;" glyph-name="page" d="M798.080 42.24h-572.16c-17.6 0-32 14.4-32 32v747.52c0 17.6 14.4 32 32 32h329.28c7.040 3.84 15.36 1.6 32.96-11.2l1.6 1.6c2.24-2.24 3.84-4.48 5.44-7.040 21.44-16.64 54.4-46.72 108.8-96l115.52-104.32c6.72-6.080 10.56-14.72 10.56-23.68v-539.2c0-17.6-14.4-32-32-32zM258.24 106.24h507.84v493.12c-76.8 69.44-180.48 163.2-210.88 190.4h-296.96v-683.52zM783.68 556.8h-215.040c-17.6 0-32 14.4-32 32v200.96c0 17.6 14.4 32 32 32s32-14.4 32-32v-168.96h183.040c17.6 0 32-14.4 32-32s-14.4-32-32-32z" />
<glyph unicode="&#xe912;" glyph-name="page-alt" d="M798.080 42.24h-572.16c-17.6 0-32 14.4-32 32v747.52c0 17.6 14.4 32 32 32h328.96c7.040 3.84 15.36 1.6 32.96-11.2l1.6 1.6c2.24-2.24 3.84-4.48 5.44-7.040 21.44-16.64 54.4-46.72 108.8-95.68l115.52-104.32c6.72-6.080 10.56-14.72 10.56-23.68v-539.2c0-17.6-14.4-32-32-32zM258.24 106.24h507.84v493.12c-76.8 69.44-180.48 163.2-210.88 190.4h-296.96v-683.52zM783.68 556.8h-215.040c-17.6 0-32 14.4-32 32v200.96c0 17.6 14.4 32 32 32s32-14.4 32-32v-168.96h183.040c17.6 0 32-14.4 32-32s-14.4-32-32-32zM649.92 401.28h-275.84c-17.6 0-32 14.4-32 32s14.4 32 32 32h275.84c17.6 0 32-14.4 32-32s-14.4-32-32-32zM649.92 302.4h-275.84c-17.6 0-32 14.4-32 32s14.4 32 32 32h275.84c17.6 0 32-14.4 32-32s-14.4-32-32-32zM649.92 203.52h-275.84c-17.6 0-32 14.4-32 32s14.4 32 32 32h275.84c17.6 0 32-14.4 32-32s-14.4-32-32-32z" />
<glyph unicode="&#xe913;" glyph-name="page-excel" d="M804.16 42.24h-571.84c-17.6 0-32 14.4-32 32v747.52c0 17.6 14.4 32 32 32h329.28c7.040 3.84 15.36 1.6 32.96-11.2l1.6 1.6c2.24-2.24 3.84-4.48 5.44-7.040 21.44-16.64 54.4-46.72 108.8-95.68l115.52-104.32c6.72-6.080 10.56-14.72 10.56-23.68v-539.2c0-17.6-14.4-32-32-32zM264.32 106.24h507.84v493.12c-76.8 69.44-180.48 163.2-210.88 190.4h-296.96v-683.52zM789.76 556.8h-215.040c-17.6 0-32 14.4-32 32v200.96c0 17.6 14.4 32 32 32s32-14.4 32-32v-168.96h183.040c17.6 0 32-14.4 32-32s-14.4-32-32-32zM403.84 165.76c-7.040 0-13.76 2.24-19.84 6.72-13.76 10.88-16.32 31.040-5.44 44.8l216 275.52c10.88 13.76 31.040 16.32 44.8 5.44s16.32-31.040 5.44-44.8l-216-275.52c-6.4-8-15.68-12.16-25.28-12.16zM620.16 165.76c-9.6 0-18.88 4.16-25.28 12.16l-216 275.52c-10.88 13.76-8.32 33.92 5.44 44.8s33.92 8.64 44.8-5.44l216-275.52c10.88-13.76 8.32-33.92-5.44-44.8-5.76-4.48-12.8-6.72-19.84-6.72z" />
<glyph unicode="&#xe914;" glyph-name="pause" d="M400 664.96h32c17.673 0 32-14.327 32-32v-369.6c0-17.673-14.327-32-32-32h-32c-17.673 0-32 14.327-32 32v369.6c0 17.673 14.327 32 32 32zM592 664.96h32c17.673 0 32-14.327 32-32v-369.6c0-17.673-14.327-32-32-32h-32c-17.673 0-32 14.327-32 32v369.6c0 17.673 14.327 32 32 32z" />
<glyph unicode="&#xe915;" glyph-name="pen" d="M170.24 72.32c-8.32 0-16.64 3.2-22.72 9.6-8 8-10.88 19.52-8.32 30.4l42.56 167.68c1.28 5.76 4.48 10.88 8.64 15.040l518.4 507.2c12.48 12.16 32.64 12.16 45.12-0.32l119.040-120.32c12.48-12.48 12.48-32.64 0-45.12l-511.040-513.6c-4.16-4.16-9.28-7.040-15.040-8.64l-168.96-40.96c-2.56-0.64-5.12-0.96-7.68-0.96zM241.6 255.36l-27.2-107.52 108.48 26.24 482.24 484.8-74.24 75.2-488.96-478.72zM378.56 542.4c-8.32 0-16.32 3.2-22.72 9.28-12.48 12.48-12.48 32.64 0 45.12l216 216c12.48 12.48 32.64 12.48 45.12 0s12.48-32.64 0-45.12l-216-216c-6.4-6.4-14.4-9.28-22.72-9.28zM646.4 709.76c-8.32 0-16.32 3.2-22.72 9.28l-49.92 49.92c-12.48 12.48-12.48 32.64 0 45.12s32.64 12.48 45.12 0l49.92-49.92c12.48-12.48 12.48-32.64 0-45.12-6.4-6.4-14.4-9.28-22.72-9.28zM811.52 710.4c-8.32 0-16.32 3.2-22.72 9.28-12.48 12.48-12.48 32.64 0 45.12l42.24 42.24c12.48 12.48 32.64 12.48 45.12 0s12.48-32.64 0-45.12l-42.24-42.24c-6.4-6.4-14.4-9.28-22.72-9.28z" />
<glyph unicode="&#xe916;" glyph-name="pensil" d="M172.16 78.4c-8.32 0-16.64 3.2-22.72 9.6-8.96 9.28-11.84 23.040-6.72 34.88l89.28 214.080c1.6 3.84 4.16 7.68 7.040 10.56l471.68 460.8c12.48 12.16 32.64 12.16 45.12-0.32l119.040-120.32c12.48-12.48 12.48-32.64 0-45.12l-464.32-467.2c-2.88-3.2-6.72-5.44-10.56-7.040l-215.36-87.36c-3.84-1.6-8-2.24-12.16-2.24zM288.32 306.24l-57.28-137.28 138.24 56 437.44 440-74.24 75.2-444.16-433.92zM384.96 208.32c-8.32 0-16.32 3.2-22.72 9.28l-98.24 98.24c-12.48 12.48-12.48 32.64 0 45.12s32.64 12.48 45.12 0l98.24-98.24c12.48-12.48 12.48-32.64 0-45.12-6.4-6.4-14.4-9.28-22.72-9.28zM752.64 565.12c-8.32 0-16.32 3.2-22.72 9.28l-96 96c-12.48 12.48-12.48 32.64 0 45.12s32.64 12.48 45.12 0l96-96c12.48-12.48 12.48-32.64 0-45.12-6.4-6.4-14.4-9.28-22.72-9.28z" />
<glyph unicode="&#xe917;" glyph-name="pin" d="M772.48 352h-49.92l-65.92 448h37.12c17.6 0 32 14.4 32 32s-14.4 32-32 32h-363.52c-17.6 0-32-14.4-32-32s14.4-32 32-32h36.16l-65.92-448h-48.96c-17.6 0-32-14.4-32-32s14.4-32 32-32h228.48v-224c0-17.6 14.4-32 32-32s32 14.4 32 32v224h228.48c17.6 0 32 14.4 32 32s-14.4 32-32 32zM431.36 800h160.96l65.92-448h-292.48l65.92 448z" />
<glyph unicode="&#xe918;" glyph-name="pin-alt" d="M847.36 672l-314.88 181.76c-15.36 8.96-34.88 3.52-43.84-11.84s-3.52-34.88 11.84-43.84l31.36-18.24-280.96-355.2-42.56 24.64c-15.36 8.96-34.88 3.52-43.84-11.84s-3.52-34.88 11.84-43.84l197.76-114.24-112-193.92c-8.96-15.36-3.52-34.88 11.84-43.84 5.12-2.88 10.56-4.16 16-4.16 11.2 0 21.76 5.76 27.84 16l112 193.92 197.76-114.24c5.12-2.88 10.56-4.16 16-4.16 11.2 0 21.76 5.76 27.84 16 8.96 15.36 3.52 34.88-11.84 43.84l-43.2 24.96 167.040 420.8 32-18.56c5.12-2.88 10.56-4.16 16-4.16 11.2 0 21.76 5.76 27.84 16 8.96 15.36 3.52 34.88-11.84 43.84zM560.32 246.4l-253.44 146.24 280.96 354.88 139.2-80.32-167.040-420.8z" />
<glyph unicode="&#xe919;" glyph-name="angle-left" d="M308.8 417.6c-9.28 0-18.56 4.16-24.96 11.84-11.2 13.76-8.96 33.92 4.8 45.12l406.080 329.28c13.76 11.2 33.92 8.96 45.12-4.8s8.96-33.92-4.8-45.12l-406.080-329.28c-6.080-4.8-13.12-7.040-20.16-7.040zM715.2 85.12c-7.040 0-14.080 2.24-20.16 7.040l-406.080 329.28c-13.76 11.2-16 31.36-4.8 45.12s31.36 15.68 45.12 4.8l406.080-329.28c13.76-11.2 16-31.36 4.8-45.12-6.4-7.68-15.68-11.84-24.96-11.84z" />
<glyph unicode="&#xe91a;" glyph-name="angle-right" d="M308.8 85.12c-9.28 0-18.56 4.16-24.96 11.84-11.2 13.76-8.96 33.92 4.8 45.12l406.080 329.28c13.76 11.2 33.92 8.96 45.12-4.8s8.96-33.92-4.8-45.12l-406.080-329.28c-6.080-4.8-13.12-7.040-20.16-7.040zM715.2 417.6c-7.040 0-14.080 2.24-20.16 7.040l-406.4 329.28c-13.76 11.2-16 31.36-4.8 45.12s31.36 16 45.12 4.8l406.080-329.28c13.76-11.2 16-31.36 4.8-45.12-6.4-7.68-15.68-11.84-24.96-11.84z" />
<glyph unicode="&#xe91b;" glyph-name="angles-left" d="M142.72 417.6c-9.28 0-18.56 4.16-24.96 11.84-11.2 13.76-8.96 33.92 4.8 45.12l406.080 329.28c13.76 11.2 33.92 8.96 45.12-4.8s8.96-33.92-4.8-45.12l-406.080-329.28c-6.080-4.8-13.12-7.040-20.16-7.040zM548.8 85.12c-7.040 0-14.080 2.24-20.16 7.040l-406.080 329.28c-13.76 11.2-16 31.36-4.8 45.12s31.36 15.68 45.12 4.8l406.080-329.28c13.76-11.2 16-31.36 4.8-45.12-6.4-7.68-15.68-11.84-24.96-11.84zM475.2 417.6c-9.28 0-18.56 4.16-24.96 11.84-11.2 13.76-8.96 33.92 4.8 45.12l406.080 329.28c13.76 11.2 33.92 8.96 45.12-4.8s8.96-33.92-4.8-45.12l-406.080-329.28c-6.080-4.8-13.12-7.040-20.16-7.040zM881.28 85.12c-7.040 0-14.080 2.24-20.16 7.040l-406.080 329.28c-13.76 11.2-16 31.36-4.8 45.12s31.36 15.68 45.12 4.8l406.080-329.28c13.76-11.2 16-31.36 4.8-45.12-6.4-7.68-15.68-11.84-24.96-11.84z" />
<glyph unicode="&#xe91c;" glyph-name="angles-right" d="M475.2 85.12c-9.28 0-18.56 4.16-24.96 11.84-11.2 13.76-8.96 33.92 4.8 45.12l406.080 329.28c13.76 11.2 33.92 8.96 45.12-4.8s8.96-33.92-4.8-45.12l-406.080-329.28c-6.080-4.8-13.12-7.040-20.16-7.040zM881.28 417.6c-7.040 0-14.080 2.24-20.16 7.040l-406.080 329.28c-13.76 11.2-16 31.36-4.8 45.12s31.36 16 45.12 4.8l406.080-329.28c13.76-11.2 16-31.36 4.8-45.12-6.4-7.68-15.68-11.84-24.96-11.84zM142.72 85.12c-9.28 0-18.56 4.16-24.96 11.84-11.2 13.76-8.96 33.92 4.8 45.12l406.080 329.28c13.76 11.2 33.92 8.96 45.12-4.8s8.96-33.92-4.8-45.12l-406.080-329.28c-6.080-4.8-13.12-7.040-20.16-7.040zM548.8 417.6c-7.040 0-14.080 2.24-20.16 7.040l-406.080 329.28c-13.76 11.2-16 31.36-4.8 45.12s31.36 16 45.12 4.8l406.080-329.28c13.76-11.2 16-31.36 4.8-45.12-6.4-7.68-15.68-11.84-24.96-11.84z" />
<glyph unicode="&#xe91d;" glyph-name="caret-bottom" d="M236.16 602.88c-7.68-8.96-7.68-19.84 0-28.48l239.36-280.96c7.68-8.96 21.44-14.4 36.48-14.4s29.12 5.44 36.48 14.4l239.36 280.96c3.84 4.48 5.76 9.28 5.76 14.4s-1.92 9.92-5.76 14.4c-7.68 8.96-21.44 14.4-36.48 14.4h-478.72c-15.040 0-29.12-5.44-36.48-14.4z" />
<glyph unicode="&#xe91e;" glyph-name="caret-left" d="M666.88 723.84c-8.96 7.68-19.84 7.68-28.48 0l-280.96-239.36c-8.96-7.68-14.4-21.44-14.4-36.48s5.44-29.12 14.4-36.48l280.96-239.36c4.48-3.84 9.28-5.76 14.4-5.76s9.92 1.92 14.4 5.76c8.96 7.68 14.4 21.44 14.4 36.48v478.72c0 15.040-5.44 29.12-14.4 36.48z" />
<glyph unicode="&#xe91f;" glyph-name="caret-right" d="M357.12 172.16c8.96-7.68 19.84-7.68 28.48 0l280.96 239.36c8.96 7.68 14.4 21.44 14.4 36.48s-5.44 29.12-14.4 36.48l-280.96 239.36c-4.48 3.84-9.28 5.76-14.4 5.76s-9.92-1.92-14.4-5.76c-8.96-7.68-14.4-21.44-14.4-36.48v-478.72c0-15.040 5.44-29.12 14.4-36.48z" />
<glyph unicode="&#xe920;" glyph-name="caret-top" d="M787.84 293.12c7.68 8.96 7.68 19.84 0 28.48l-239.36 280.96c-7.68 8.96-21.44 14.4-36.48 14.4s-29.12-5.44-36.48-14.4l-239.36-280.96c-3.84-4.48-5.76-9.28-5.76-14.4s1.92-9.92 5.76-14.4c7.68-8.96 21.44-14.4 36.48-14.4h478.72c15.040 0 29.12 5.44 36.48 14.4z" />
<glyph unicode="&#xe921;" glyph-name="pin-full" d="M690.24 356.16h-356.48l64 431.040h228.48l64-431.040zM690.24 324.16h-356.8c-9.28 0-18.24 4.16-24.32 11.2s-8.96 16.32-7.36 25.6l64 431.040c2.24 15.68 15.68 27.2 31.68 27.2h228.8c16 0 29.44-11.52 31.68-27.2l64-431.040c1.28-9.28-1.28-18.56-7.36-25.6s-15.040-11.2-24.32-11.2zM370.56 388.16h282.56l-54.4 367.040h-173.44l-54.4-367.040zM693.76 800h-363.52c-17.6 0-32 14.4-32 32s14.4 32 32 32h363.52c17.6 0 32-14.4 32-32s-14.4-32-32-32zM772.48 288h-520.96c-17.6 0-32 14.4-32 32s14.4 32 32 32h520.96c17.6 0 32-14.4 32-32s-14.4-32-32-32zM512 32c-17.6 0-32 14.4-32 32v224.64c0 17.6 14.4 32 32 32s32-14.4 32-32v-224.64c0-17.6-14.4-32-32-32z" />
<glyph unicode="&#xe922;" glyph-name="pin-full-alt" d="M590.72 233.92l-309.12 178.24 271.040 341.12 198.080-114.24-160-405.12zM590.72 201.6c-5.44 0-11.2 1.6-16 4.16l-309.12 178.24c-8 4.8-13.76 12.48-15.36 21.76s0.64 18.56 6.4 25.92l271.040 341.12c9.92 12.48 27.2 15.68 40.96 7.68l198.080-114.24c13.76-8 19.52-24.64 13.76-39.36l-160-405.12c-3.52-8.64-10.56-15.36-19.2-18.56-3.52-1.28-7.040-1.92-10.56-1.92zM329.92 421.12l244.8-141.44 136.32 344.96-150.4 86.72-230.72-290.56zM831.36 612.16c-5.44 0-10.88 1.28-16 4.16l-314.88 181.76c-15.36 8.96-20.48 28.48-11.84 43.84 8.96 15.36 28.48 20.48 43.84 11.84l314.88-181.76c15.36-8.96 20.48-28.48 11.84-43.84-6.080-10.24-16.64-16-27.84-16zM643.52 129.6c-5.44 0-10.88 1.28-16 4.16l-451.2 260.48c-15.36 8.96-20.48 28.48-11.84 43.84 8.96 15.36 28.48 20.48 43.84 11.84l451.2-260.48c15.36-8.96 20.48-28.48 11.84-43.84-6.080-10.24-16.64-16-27.84-16zM289.92 38.080c-5.44 0-10.88 1.28-16 4.16-15.36 8.96-20.48 28.48-11.84 43.84l112.32 194.56c8.96 15.36 28.48 20.48 43.84 11.84s20.48-28.48 11.84-43.84l-112.32-194.56c-6.080-10.24-16.64-16-27.84-16z" />
<glyph unicode="&#xe923;" glyph-name="plis" d="M816.32 416h-608.64c-17.6 0-32 14.4-32 32s14.4 32 32 32h608.64c17.6 0 32-14.4 32-32s-14.4-32-32-32zM512 111.68c-17.6 0-32 14.4-32 32v608.64c0 17.6 14.4 32 32 32s32-14.4 32-32v-608.64c0-17.6-14.4-32-32-32z" />
<glyph unicode="&#xe924;" glyph-name="plus-circle" d="M512 61.12c-213.44 0-386.88 173.44-386.88 386.88s173.44 386.88 386.88 386.88 386.88-173.44 386.88-386.88-173.44-386.88-386.88-386.88zM512 770.88c-177.92 0-322.88-144.96-322.88-322.88s144.96-322.88 322.88-322.88 322.88 144.96 322.88 322.88-144.96 322.88-322.88 322.88zM716.16 416h-408.32c-17.6 0-32 14.4-32 32s14.4 32 32 32h408.32c17.6 0 32-14.4 32-32s-14.4-32-32-32zM512 211.84c-17.6 0-32 14.4-32 32v408.32c0 17.6 14.4 32 32 32s32-14.4 32-32v-408.32c0-17.6-14.4-32-32-32z" />
<glyph unicode="&#xe925;" glyph-name="prev" d="M685.12 657.28c-9.92 5.76-22.080 5.76-32 0l-314.56-181.44c-9.92-5.76-16-16.32-16-27.84s6.080-22.080 16-27.84l314.56-181.44c4.8-2.88 10.56-4.16 16-4.16s11.2 1.28 16 4.16c9.92 5.76 16 16.32 16 27.84v363.2c0 11.52-6.080 22.080-16 27.84z" />
<glyph unicode="&#xe926;" glyph-name="question-circle" d="M492.16 61.12c-213.44 0-386.88 173.44-386.88 386.88s173.76 386.88 386.88 386.88 386.88-173.44 386.88-386.88-173.44-386.88-386.88-386.88zM492.16 770.88c-177.92 0-322.88-144.96-322.88-322.88s144.96-322.88 322.88-322.88 322.88 144.96 322.88 322.88-144.96 322.88-322.88 322.88zM496 319.36c-17.6 0-32 14.4-32 32v38.72c0 28.48 14.080 55.040 37.44 71.040l9.6 6.4c47.68 32.32 55.68 38.72 59.2 72.96 1.92 17.92-2.56 34.88-12.16 46.080-24.32 28.48-61.12 27.52-62.080 27.52-68.8 0-82.24-55.68-82.56-58.24-3.84-17.28-21.12-27.84-38.4-24s-28.16 21.12-24 38.4c8.32 37.44 49.28 108.16 143.68 108.16 1.28 0 67.2 2.56 112-49.92 20.8-24.32 30.72-58.56 27.2-94.080-6.72-64.96-36.8-85.76-87.040-119.68l-9.28-6.4c-6.080-4.16-9.6-10.88-9.6-18.24v-38.72c0-17.6-14.4-32-32-32zM500.8 212.48c-17.6 0-32.64 14.72-32.64 32.64s14.72 32.64 32.64 32.64 32.64-14.72 32.64-32.64-14.72-32.64-32.64-32.64zM532.16 245.12v0 0zM500.8 245.12v0 0z" />
<glyph unicode="&#xe927;" glyph-name="slash-circle" d="M512 61.12c-213.44 0-386.88 173.44-386.88 386.88s173.44 386.88 386.88 386.88 386.88-173.44 386.88-386.88-173.44-386.88-386.88-386.88zM512 770.88c-177.92 0-322.88-144.96-322.88-322.88s144.96-322.88 322.88-322.88 322.88 144.96 322.88 322.88-144.96 322.88-322.88 322.88zM269.44 173.44c-8.32 0-16.32 3.2-22.72 9.28-12.48 12.48-12.48 32.64 0 45.12l485.12 485.12c12.48 12.48 32.64 12.48 45.12 0s12.48-32.64 0-45.12l-485.12-485.12c-6.4-6.4-14.4-9.28-22.72-9.28z" />
<glyph unicode="&#xe928;" glyph-name="trash" d="M849.28 653.44h-674.56c-17.6 0-32 14.4-32 32s14.4 32 32 32h674.56c17.6 0 32-14.4 32-32s-14.4-32-32-32zM797.12 55.36h-570.24c-17.6 0-32 14.4-32 32v594.56c0 17.6 14.4 32 32 32h570.24c17.6 0 32-14.4 32-32v-594.88c0-17.6-14.4-32-32-32zM258.88 119.36h506.24v530.56h-506.24v-530.88zM512 214.72c-17.6 0-32 14.4-32 32v270.72c0 17.6 14.4 32 32 32s32-14.4 32-32v-270.72c0-17.6-14.4-32-32-32zM634.88 214.72c-17.6 0-32 14.4-32 32v270.72c0 17.6 14.4 32 32 32s32-14.4 32-32v-270.72c0-17.6-14.4-32-32-32zM389.12 214.72c-17.6 0-32 14.4-32 32v270.72c0 17.6 14.4 32 32 32s32-14.4 32-32v-270.72c0-17.6-14.4-32-32-32zM653.44 664.96h-282.56c-17.6 0-32 14.4-32 32v111.68c0 17.6 14.4 32 32 32h282.56c17.6 0 32-14.4 32-32v-111.68c0-17.6-14.4-32-32-32zM402.88 728.96h218.56v47.68h-218.56v-47.68z" />
<glyph unicode="&#xe929;" glyph-name="upload" d="M172.8 89.6c-17.6 0-32 14.4-32 32v177.92c0 17.6 14.4 32 32 32s32-14.4 32-32v-177.92c0-17.6-14.4-32-32-32zM851.2 89.6c-17.6 0-32 14.4-32 32v177.92c0 17.6 14.4 32 32 32s32-14.4 32-32v-177.92c0-17.6-14.4-32-32-32zM848.32 89.6h-672.64c-17.6 0-32 14.4-32 32s14.4 32 32 32h672.64c17.6 0 32-14.4 32-32s-14.4-32-32-32zM512 236.16c-17.6 0-32 14.4-32 32v506.24c0 17.6 14.4 32 32 32s32-14.4 32-32v-506.24c0-17.6-14.4-32-32-32zM676.48 589.76c-7.68 0-15.68 2.88-21.76 8.64l-164.8 152.32c-13.12 12.16-13.76 32.32-1.6 45.12 12.16 13.12 32.32 13.76 45.12 1.6l164.8-152.32c13.12-12.16 13.76-32.32 1.6-45.12-6.4-6.72-15.040-10.24-23.36-10.24zM347.52 589.76c-8.64 0-17.28 3.52-23.36 10.24-12.16 13.12-11.2 33.28 1.6 45.12l164.8 152.32c12.8 12.16 33.28 11.2 45.12-1.6 12.16-13.12 11.2-33.28-1.6-45.12l-164.8-152.32c-6.080-5.76-14.080-8.64-21.76-8.64z" />
<glyph unicode="&#xe92a;" glyph-name="user" d="M512 460.48c-98.24 0-177.92 80-177.92 177.92s80 177.92 177.92 177.92 177.92-80 177.92-177.92-80-177.92-177.92-177.92zM512 752.64c-62.72 0-113.92-51.2-113.92-113.92s51.2-113.92 113.92-113.92 113.92 51.2 113.92 113.92-51.2 113.92-113.92 113.92zM832.32 79.36h-640.64c-8.64 0-17.28 3.52-23.040 9.92-6.080 6.4-9.28 14.72-8.96 23.68 0 2.88 18.24 301.76 347.52 303.68 1.92 0 4.16 0 6.72 0 0 0 0.32 0 0.64 0 344.64-0.64 349.76-302.080 349.76-305.28 0-8.64-3.2-16.64-9.28-22.72s-14.080-9.28-22.72-9.28zM228.16 143.36h568.64c-11.52 65.92-62.4 209.28-283.84 209.28h-2.56c-213.12 0-268.16-142.4-282.56-209.28z" />
<glyph unicode="&#xe92b;" glyph-name="user-cirle" d="M512 480.32c-76.16 0-138.24 62.080-138.24 138.24s62.080 138.24 138.24 138.24 138.24-62.080 138.24-138.24-62.080-138.24-138.24-138.24zM512 692.8c-40.96 0-74.24-33.28-74.24-74.24s33.28-74.24 74.24-74.24 74.24 33.28 74.24 74.24-33.28 74.24-74.24 74.24zM745.28 203.2h-466.24c-8.64 0-17.28 3.52-23.040 9.92-6.080 6.4-9.28 14.72-8.96 23.68 3.84 79.040 63.36 227.84 261.12 229.44 1.28 0 2.56 0 3.84 0 1.6 0 2.56 0 3.84 0 257.28-1.6 261.44-228.48 261.44-230.72 0-8.64-3.2-16.64-9.28-22.72s-14.080-9.28-22.72-9.28zM316.48 267.2h392.64c-10.88 49.28-50.88 135.040-196.16 135.040-0.64 0-1.28 0-1.6 0-138.88 0-181.44-85.12-194.56-135.040zM512-9.92c-252.48 0-457.92 205.44-457.92 457.92s205.44 457.92 457.92 457.92 457.92-205.44 457.92-457.92-205.44-457.92-457.92-457.92zM512 841.92c-217.28 0-393.92-176.64-393.92-393.92s176.64-393.92 393.92-393.92 393.92 176.64 393.92 393.92-176.64 393.92-393.92 393.92z" />
<glyph unicode="&#xe92c;" glyph-name="user-full" d="M512 460.48c98.24 0 177.92 80 177.92 177.92s-80 177.92-177.92 177.92-177.92-80-177.92-177.92 80-177.92 177.92-177.92zM516.8 416.64s-2.88 0-4.8 0c-1.92 0-3.2 0-4.8 0-329.28-2.24-347.52-300.8-347.52-303.68-0.32-8.64 2.88-17.28 8.96-23.68s14.4-9.92 23.040-9.92h640.64c8.64 0 16.64 3.52 22.72 9.28 6.080 6.080 9.28 14.080 9.28 22.72 0 2.88-5.44 303.040-347.52 305.28z" />
<glyph unicode="&#xe92d;" glyph-name="user-full-circle" d="M512 480.32c76.16 0 138.24 62.080 138.24 138.24s-62.080 138.24-138.24 138.24-138.24-62.080-138.24-138.24 62.080-138.24 138.24-138.24zM515.84 465.92s-2.56 0-3.84 0c-1.28 0-2.56 0-3.84 0-198.080-1.6-257.6-150.4-261.12-229.44-0.32-8.64 2.88-17.28 8.96-23.68s14.4-9.92 23.040-9.92h466.24c8.64 0 16.64 3.52 22.72 9.28 6.080 6.080 9.28 14.080 9.28 22.72 0 2.24-3.84 229.12-261.44 230.72zM512-9.92c-252.48 0-457.92 205.44-457.92 457.92s205.44 457.92 457.92 457.92 457.92-205.44 457.92-457.92-205.44-457.92-457.92-457.92zM512 841.92c-217.28 0-393.92-176.64-393.92-393.92s176.64-393.92 393.92-393.92 393.92 176.64 393.92 393.92-176.64 393.92-393.92 393.92z" />
<glyph unicode="&#xe92e;" glyph-name="comment-dots" d="M342.72 423.68c0-9.897-8.023-17.92-17.92-17.92s-17.92 8.023-17.92 17.92c0 9.897 8.023 17.92 17.92 17.92s17.92-8.023 17.92-17.92zM324.8 374.080c-27.52 0-49.92 22.4-49.92 49.92s22.4 49.92 49.92 49.92 49.92-22.4 49.92-49.92-22.4-49.92-49.92-49.92zM324.8 438.080c-7.68 0-14.080-6.4-14.080-14.080s6.4-14.080 14.080-14.080 14.080 6.4 14.080 14.080-6.4 14.080-14.080 14.080zM508.48 423.68c0-9.897-8.023-17.92-17.92-17.92s-17.92 8.023-17.92 17.92c0 9.897 8.023 17.92 17.92 17.92s17.92-8.023 17.92-17.92zM490.56 374.080c-27.52 0-49.92 22.4-49.92 49.92s22.4 49.92 49.92 49.92 49.92-22.4 49.92-49.92-22.4-49.92-49.92-49.92zM490.56 438.080c-7.68 0-14.080-6.4-14.080-14.080s6.4-14.080 14.080-14.080 14.080 6.4 14.080 14.080-6.4 14.080-14.080 14.080zM674.24 423.68c0-9.897-8.023-17.92-17.92-17.92s-17.92 8.023-17.92 17.92c0 9.897 8.023 17.92 17.92 17.92s17.92-8.023 17.92-17.92zM656.32 374.080c-27.52 0-49.92 22.4-49.92 49.92s22.4 49.92 49.92 49.92 49.92-22.4 49.92-49.92-22.4-49.92-49.92-49.92zM656.32 438.080c-7.68 0-14.080-6.4-14.080-14.080s6.4-14.080 14.080-14.080 14.080 6.4 14.080 14.080-6.4 14.080-14.080 14.080zM490.56 54.72c-203.52 0-368.96 165.44-368.96 368.96s165.44 369.28 368.96 369.28 368.96-165.44 368.96-368.96-165.44-368.96-368.96-368.96zM490.56 728.64c-168.32 0-304.96-136.96-304.96-304.96s136.96-304.96 304.96-304.96 304.96 136.96 304.96 304.96-136.96 304.96-304.96 304.96z" />
<glyph unicode="&#xe92f;" glyph-name="message" d="M679.040 98.24c-11.2 0-21.44 5.76-27.2 15.040l-76.16 122.88h-441.92c-17.6 0-32 14.4-32 32v407.36c0 17.6 14.4 32 32 32h756.8c17.6 0 32-14.4 32-32v-407.36c0-17.6-14.4-32-32-32h-108.16l-76.16-122.88c-5.76-9.28-16-15.040-27.2-15.040zM165.76 300.16h427.84c11.2 0 21.44-5.76 27.2-15.040l58.56-94.080 58.56 94.080c5.76 9.28 16 15.040 27.2 15.040h93.76v343.36h-693.12v-343.36z" />
<glyph unicode="&#xe930;" glyph-name="message-dots" d="M673.6 111.36c-11.2 0-21.44 5.76-27.2 15.040l-76.16 122.88h-441.92c-17.6 0-32 14.4-32 32v407.36c0 17.6 14.4 32 32 32h756.8c17.6 0 32-14.4 32-32v-407.36c0-17.6-14.4-32-32-32h-108.16l-76.16-122.88c-5.76-9.28-16-15.040-27.2-15.040zM160.32 313.28h427.84c11.2 0 21.44-5.76 27.2-15.040l58.56-94.080 58.56 94.080c5.76 9.28 16 15.040 27.2 15.040h93.76v343.36h-693.12v-343.36zM358.72 477.44c0-9.897-8.023-17.92-17.92-17.92s-17.92 8.023-17.92 17.92c0 9.897 8.023 17.92 17.92 17.92s17.92-8.023 17.92-17.92zM340.8 427.52c-27.52 0-49.92 22.4-49.92 49.92s22.4 49.92 49.92 49.92 49.92-22.4 49.92-49.92-22.4-49.92-49.92-49.92zM340.8 491.52c-7.68 0-14.080-6.4-14.080-14.080s6.4-14.080 14.080-14.080 14.080 6.4 14.080 14.080-6.4 14.080-14.080 14.080zM524.48 477.44c0-9.897-8.023-17.92-17.92-17.92s-17.92 8.023-17.92 17.92c0 9.897 8.023 17.92 17.92 17.92s17.92-8.023 17.92-17.92zM506.56 427.52c-27.52 0-49.92 22.4-49.92 49.92s22.4 49.92 49.92 49.92 49.92-22.4 49.92-49.92-22.4-49.92-49.92-49.92zM506.56 491.52c-7.68 0-14.080-6.4-14.080-14.080s6.4-14.080 14.080-14.080 14.080 6.4 14.080 14.080-6.4 14.080-14.080 14.080zM690.24 477.44c0-9.897-8.023-17.92-17.92-17.92s-17.92 8.023-17.92 17.92c0 9.897 8.023 17.92 17.92 17.92s17.92-8.023 17.92-17.92zM672.32 427.52c-27.52 0-49.92 22.4-49.92 49.92s22.4 49.92 49.92 49.92 49.92-22.4 49.92-49.92-22.4-49.92-49.92-49.92zM672.32 491.52c-7.68 0-14.080-6.4-14.080-14.080s6.4-14.080 14.080-14.080 14.080 6.4 14.080 14.080-6.4 14.080-14.080 14.080z" />
<glyph unicode="&#xe931;" glyph-name="users" d="M652.16 457.92c76.48 0 138.88 62.4 138.88 138.88s-62.4 138.88-138.88 138.88-138.88-62.4-138.88-138.88 62.4-138.88 138.88-138.88zM655.68 423.68s-2.24 0-3.84 0c-1.28 0-2.56 0-3.84 0-256.96-1.6-271.040-234.56-271.040-236.8 0-6.72 2.24-13.44 6.72-18.56 4.8-4.8 11.2-7.68 17.92-7.68h499.52c6.72 0 13.12 2.56 17.6 7.36 4.8 4.8 7.36 11.2 7.36 17.6 0 2.24-4.16 236.48-271.040 238.080zM305.92 386.56c58.24 0 105.6 47.36 105.6 105.6s-47.36 105.6-105.6 105.6-105.6-47.36-105.6-105.6 47.36-105.6 105.6-105.6zM321.6 186.56s5.44 91.52 71.040 160.32c-23.36 8-50.88 13.44-83.84 13.44-0.96 0-1.6 0-2.88 0-0.96 0-1.92 0-2.88 0-195.2-1.28-206.080-178.24-206.080-180.16 0-5.12 1.6-10.24 5.12-14.080s8.64-5.76 13.76-5.76h230.72c-6.72 0-13.44 2.88-17.92 7.68-4.8 4.8-7.040 11.52-6.72 18.56z" />
<glyph unicode="&#xe932;" glyph-name="angle-bottom" d="M542.4 244.8c0-9.28-4.16-18.56-11.84-24.96-13.76-11.2-33.92-8.96-45.12 4.8l-329.28 406.4c-11.2 13.76-8.96 33.92 4.8 45.12s33.92 8.96 45.12-4.8l329.28-406.080c4.8-6.080 7.040-13.12 7.040-20.16zM874.88 651.2c0-7.040-2.24-14.080-7.040-20.16l-329.28-406.080c-11.2-13.76-31.36-16-45.12-4.8s-15.68 31.36-4.8 45.12l329.28 406.080c11.2 13.76 31.36 16 45.12 4.8 7.68-6.4 11.84-15.68 11.84-24.96z" />
<glyph unicode="&#xe933;" glyph-name="angle-top" d="M874.88 244.8c0-9.28-4.16-18.56-11.84-24.96-13.76-11.2-33.92-8.96-45.12 4.8l-329.28 406.080c-11.2 13.76-8.96 33.92 4.8 45.12s33.92 8.96 45.12-4.8l329.28-406.080c4.8-6.080 7.040-13.12 7.040-20.16zM542.4 651.2c0-7.040-2.24-14.080-7.040-20.16l-329.28-406.080c-11.2-13.76-31.36-16-45.12-4.8s-16 31.36-4.8 45.12l329.28 406.080c11.2 13.76 31.36 16 45.12 4.8 7.68-6.4 11.84-15.68 11.84-24.96z" />
<glyph unicode="&#xe934;" glyph-name="sort-default" d="M765.44 75.2c-8.32 0-16.32 3.2-22.72 9.28-12.48 12.48-12.48 32.64 0 45.12l208.96 208.96c12.48 12.48 32.64 12.48 45.12 0s12.48-32.64 0-45.12l-208.96-208.96c-6.4-6.4-14.4-9.28-22.72-9.28zM761.28 75.2c-8.32 0-16.32 3.2-22.72 9.28l-208.96 208.96c-12.48 12.48-12.48 32.64 0 45.12s32.64 12.48 45.12 0l208.96-208.96c12.48-12.48 12.48-32.64 0-45.12-6.4-6.4-14.4-9.28-22.72-9.28zM764.16 73.6c-17.6 0-32 14.4-32 32v684.8c0 17.6 14.4 32 32 32s32-14.4 32-32v-684.48c0-17.6-14.4-32-32-32zM49.92 547.84c-8.32 0-16.32 3.2-22.72 9.28-12.48 12.48-12.48 32.64 0 45.12l208.96 208.96c12.48 12.48 32.64 12.48 45.12 0s12.48-32.64 0-45.12l-208.96-208.96c-6.4-6.4-14.4-9.28-22.72-9.28zM471.36 547.84c-8.32 0-16.32 3.2-22.72 9.28l-208.96 208.96c-12.48 12.48-12.48 32.64 0 45.12s32.64 12.48 45.12 0l208.96-208.96c12.48-12.48 12.48-32.64 0-45.12-6.4-6.4-14.4-9.28-22.72-9.28zM259.84 73.6c-17.6 0-32 14.4-32 32v684.8c0 17.6 14.4 32 32 32s32-14.4 32-32v-684.48c0-17.6-14.4-32-32-32z" />
<glyph unicode="&#xe935;" glyph-name="cal02" d="M825.6 837.44v95.040h-123.84v-95.040h-381.12v95.040h-123.84v-95.040h-165.12v-873.92h960.64v873.92h-166.4zM108.48 40.32v496.32h807.040v-496.32h-807.040z" />
<glyph unicode="&#xe936;" glyph-name="cal01" d="M825.6 837.44v95.040h-123.84v-95.040h-381.12v95.040h-123.84v-95.040h-165.12v-873.92h960.64v873.92h-166.4zM108.48 40.32v496.32h807.040v-496.32h-807.040zM238.72 456.64h123.84v-123.84h-123.84v123.84zM238.72 248.64h123.84v-123.84h-123.84v123.84zM450.24 456.64h123.84v-123.84h-123.84v123.84zM450.24 248.64h123.84v-123.84h-123.84v123.84zM661.76 456.64h123.84v-123.84h-123.84v123.84zM661.76 248.64h123.84v-123.84h-123.84v123.84z" />
<glyph unicode="&#xe937;" glyph-name="excl" d="M504.64 823.040c-213.44 0-386.88-173.44-386.88-386.88s173.44-386.88 386.88-386.88 386.88 173.44 386.88 386.88-173.44 386.88-386.88 386.88zM504.64 113.28c-177.92 0-322.88 144.96-322.88 322.88s144.64 322.88 322.88 322.88 322.88-144.96 322.88-322.88-144.96-322.88-322.88-322.88zM504.64 257.92c-22.72 0-41.92-19.2-41.92-41.92s19.2-41.92 41.92-41.92 41.92 19.2 41.92 41.92-19.2 41.92-41.92 41.92zM531.2 671.36h-53.44c-8.64 0-16.96-3.84-23.040-10.24-6.4-7.040-9.6-16.96-8.96-26.88l27.84-296.64c1.6-17.6 15.040-30.4 32-30.4v0c16.96 0 30.080 13.12 31.68 30.72l25.28 296.64c0.96 9.92-2.56 19.52-8.96 26.56-6.080 6.72-14.080 10.24-22.72 10.24z" />
<glyph unicode="&#xe938;" glyph-name="check" d="M815.040 660.8c17.6-17.6 17.6-46.4 0-64l-361.6-361.6c-17.6-17.6-46.4-17.6-64 0l-180.8 180.8c-17.6 17.6-17.6 46.4 0 64s46.4 17.6 64 0l148.8-148.8 329.6 329.28c17.6 17.6 46.4 17.6 64 0v0z" />
<glyph unicode="&#xe939;" glyph-name="grip-h" d="M843.84 588.8c0-36.407-29.513-65.92-65.92-65.92s-65.92 29.513-65.92 65.92c0 36.407 29.513 65.92 65.92 65.92s65.92-29.513 65.92-65.92zM843.84 307.2c0-36.407-29.513-65.92-65.92-65.92s-65.92 29.513-65.92 65.92c0 36.407 29.513 65.92 65.92 65.92s65.92-29.513 65.92-65.92zM577.92 588.8c0-36.407-29.513-65.92-65.92-65.92s-65.92 29.513-65.92 65.92c0 36.407 29.513 65.92 65.92 65.92s65.92-29.513 65.92-65.92zM577.92 307.2c0-36.407-29.513-65.92-65.92-65.92s-65.92 29.513-65.92 65.92c0 36.407 29.513 65.92 65.92 65.92s65.92-29.513 65.92-65.92zM312 588.8c0-36.407-29.513-65.92-65.92-65.92s-65.92 29.513-65.92 65.92c0 36.407 29.513 65.92 65.92 65.92s65.92-29.513 65.92-65.92zM312 307.2c0-36.407-29.513-65.92-65.92-65.92s-65.92 29.513-65.92 65.92c0 36.407 29.513 65.92 65.92 65.92s65.92-29.513 65.92-65.92z" />
<glyph unicode="&#xe93a;" glyph-name="excl-full" d="M504 822.080c-213.76 0-387.2-173.44-387.2-387.2s173.44-387.2 387.2-387.2 387.2 173.44 387.2 387.2-173.44 387.2-387.2 387.2zM504.64 174.080c-22.72 0-41.92 19.2-41.92 41.92s19.2 41.92 41.92 41.92 41.92-19.2 41.92-41.92-19.2-41.92-41.92-41.92zM537.92 337.6c-1.6-17.92-14.72-30.72-31.68-30.72v0c-16.64 0-30.080 12.8-31.68 30.4l-27.84 296.64c-0.96 9.92 2.24 19.84 8.96 26.88 6.080 6.72 14.080 10.24 23.040 10.24h53.12c8.64 0 16.96-3.52 23.040-10.24 6.4-7.040 9.92-16.96 8.96-26.56l-25.28-296.64z" />
<glyph unicode="&#xe93b;" glyph-name="grip-v" d="M437.12 713.92c0-36.407-29.513-65.92-65.92-65.92s-65.92 29.513-65.92 65.92c0 36.407 29.513 65.92 65.92 65.92s65.92-29.513 65.92-65.92zM718.72 713.92c0-36.407-29.513-65.92-65.92-65.92s-65.92 29.513-65.92 65.92c0 36.407 29.513 65.92 65.92 65.92s65.92-29.513 65.92-65.92zM437.12 448c0-36.407-29.513-65.92-65.92-65.92s-65.92 29.513-65.92 65.92c0 36.407 29.513 65.92 65.92 65.92s65.92-29.513 65.92-65.92zM718.72 448c0-36.407-29.513-65.92-65.92-65.92s-65.92 29.513-65.92 65.92c0 36.407 29.513 65.92 65.92 65.92s65.92-29.513 65.92-65.92zM437.12 182.080c0-36.407-29.513-65.92-65.92-65.92s-65.92 29.513-65.92 65.92c0 36.407 29.513 65.92 65.92 65.92s65.92-29.513 65.92-65.92zM718.72 182.080c0-36.407-29.513-65.92-65.92-65.92s-65.92 29.513-65.92 65.92c0 36.407 29.513 65.92 65.92 65.92s65.92-29.513 65.92-65.92z" />
<glyph unicode="&#xe93c;" glyph-name="filter-column" d="M856.96 123.84h-689.6c-17.6 0-32 14.4-32 32v584.32c0 17.6 14.4 32 32 32h689.28c17.6 0 32-14.4 32-32v-584c0-17.6-14.4-32-32-32zM199.68 187.84h625.28v520.32h-625.6v-520zM167.040 136.64c-17.6 0-32 14.4-32 32v570.88c0 17.6 14.4 32 32 32s32-14.4 32-32v-570.56c0-17.6-14.4-32-32-32zM396.8 136.64c-17.6 0-32 14.4-32 32v570.88c0 17.6 14.4 32 32 32s32-14.4 32-32v-570.56c0-17.6-14.4-32-32-32zM626.88 136c-17.6 0-32 14.4-32 32v570.56c0 17.6 14.4 32 32 32s32-14.4 32-32v-570.56c0-17.6-14.4-32-32-32zM856.64 136c-17.6 0-32 14.4-32 32v570.56c0 17.6 14.4 32 32 32s32-14.4 32-32v-570.56c0-17.6-14.4-32-32-32z" />
<glyph unicode="&#xe93d;" glyph-name="filter-fixcol" d="M856.64 708.48h-412.8l11.2 15.040 51.84 70.4c2.88 3.84 0 9.28-4.8 9.28h-105.6s-106.24 0-106.24 0c-4.8 0-7.68-5.44-4.8-9.28l51.84-70.4 11.2-15.040h-181.44c-17.6 0-32-14.4-32-32v-584c0-17.6 14.4-32 32-32h689.28c17.6 0 32 14.4 32 32v584c0 17.6-14.4 32-32 32zM199.36 644.48h165.44v-520h-165.44v520zM594.56 124.48h-165.76v520h165.76v-520zM824.64 124.48h-166.080v520h166.080v-520z" />
<glyph unicode="&#xe93e;" glyph-name="filter-fixcol-head" d="M856.96 772.16h-689.6c-13.44 0-24.64-8-29.44-19.52-1.92-3.84-2.88-8.32-2.88-12.8v-570.56s0-0.96 0.32-1.6v-11.2c0-17.6 14.4-32 32-32h689.28c17.6 0 32 14.4 32 32v583.68c0 17.6-14.4 32-32 32zM594.88 188.16h-165.76v520h165.76v-520zM824.64 188.16h-165.76v520h165.76v-520z" />
<glyph unicode="&#xe93f;" glyph-name="filter-fixcol-tail" d="M856.96 772.16h-689.6c-13.44 0-24.64-8-29.44-19.52-1.92-3.84-2.88-8.32-2.88-12.8v-570.56s0-0.96 0.32-1.6v-11.2c0-17.6 14.4-32 32-32h689.28c17.6 0 32 14.4 32 32v583.68c0 17.6-14.4 32-32 32zM365.12 188.16h-165.44v520h165.44v-520zM594.88 188.16h-165.76v520h165.76v-520z" />
<glyph unicode="&#xe940;" glyph-name="filter-fixcol-body" d="M856.96 772.16h-689.6c-13.44 0-24.64-8-29.44-19.52-1.92-3.84-2.88-8.32-2.88-12.8v-570.56s0-0.96 0.32-1.6v-11.2c0-17.6 14.4-32 32-32h689.28c17.6 0 32 14.4 32 32v583.68c0 17.6-14.4 32-32 32zM365.12 188.16h-165.44v520h165.44v-520zM824.64 188.16h-165.76v520h165.76v-520z" />
<glyph unicode="&#xe941;" glyph-name="filter-asc" d="M342.080 732.8s-0.64 0.96-0.96 1.6c-3.52 3.52-7.36 6.080-11.84 8-0.32 0-0.96 0-1.6 0.32 0 0 0 0 0 0-0.96 0.32-1.92 0.32-2.88 0.64-2.56 0.64-5.12 1.28-7.68 1.28 0 0-0.64 0-0.96 0s-0.64 0-0.96 0c-2.56 0-5.12-0.64-7.68-1.28-0.96 0-1.92-0.32-3.2-0.64 0 0 0 0 0 0-0.64 0-0.96 0-1.6-0.32-4.48-1.92-8.32-4.48-11.84-8-0.32-0.32-0.64-0.96-0.96-1.6l-168-155.52c-13.44-12.48-14.4-33.6-1.92-47.040 6.72-7.040 15.68-10.56 24.64-10.56 8 0 16.32 2.88 22.72 8.96l115.2 106.56v-450.88c0-18.56 15.040-33.28 33.28-33.28s33.28 15.040 33.28 33.28v450.88l115.2-106.56c6.4-6.080 14.4-8.96 22.72-8.96 8.96 0 17.92 3.52 24.64 10.56 12.48 13.44 11.84 34.56-1.92 47.040l-168 155.52zM616.96 680.32h32c17.6 0 32 14.4 32 32s-14.4 32-32 32h-32c-17.6 0-32-14.4-32-32s14.4-32 32-32zM616.96 416h142.4c17.6 0 32 14.4 32 32s-14.4 32-32 32h-142.4c-17.6 0-32-14.4-32-32s14.4-32 32-32zM616.96 548.16h81.28c17.6 0 32 14.4 32 32s-14.4 32-32 32h-81.28c-17.6 0-32-14.4-32-32s14.4-32 32-32zM616.96 283.84h217.92c17.6 0 32 14.4 32 32s-14.4 32-32 32h-217.92c-17.6 0-32-14.4-32-32s14.4-32 32-32zM912.32 215.68h-295.36c-17.6 0-32-14.4-32-32s14.4-32 32-32h295.36c17.6 0 32 14.4 32 32s-14.4 32-32 32z" />
<glyph unicode="&#xe942;" glyph-name="filter-desc" d="M487.68 376.64c-8 0-16.32-2.88-22.72-8.96l-115.2-106.56v450.56c0 18.56-15.040 33.28-33.28 33.28s-33.28-15.040-33.28-33.28v-450.88l-115.2 106.56c-6.4 6.080-14.4 8.96-22.72 8.96-8.96 0-17.92-3.52-24.64-10.56-12.48-13.44-11.84-34.56 1.92-47.040l168-155.52s0.64-0.96 0.96-1.6c3.52-3.84 7.36-6.080 11.84-8 0.32 0 0.96 0 1.28-0.32 0 0 0 0 0 0 0.96-0.32 1.92-0.32 2.88-0.64 2.56-0.64 5.12-1.28 7.68-1.28 0 0 0.64 0 0.96 0s0.64 0 0.96 0c2.56 0 5.12 0.64 7.68 1.28 0.96 0 1.92 0.32 3.2 0.64 0 0 0 0 0 0 0.64 0 0.96 0 1.6 0.32 4.48 1.92 8.32 4.48 11.84 8 0.32 0.32 0.64 0.96 0.96 1.6l168 155.52c13.44 12.48 14.4 33.6 1.92 47.040-6.72 7.040-15.68 10.56-24.64 10.56zM648.96 215.68h-32c-17.6 0-32-14.4-32-32s14.4-32 32-32h32c17.6 0 32 14.4 32 32s-14.4 32-32 32zM759.36 480h-142.4c-17.6 0-32-14.4-32-32s14.4-32 32-32h142.4c17.6 0 32 14.4 32 32s-14.4 32-32 32zM698.24 347.84h-81.28c-17.6 0-32-14.4-32-32s14.4-32 32-32h81.28c17.6 0 32 14.4 32 32s-14.4 32-32 32zM834.88 612.16h-217.92c-17.6 0-32-14.4-32-32s14.4-32 32-32h217.92c17.6 0 32 14.4 32 32s-14.4 32-32 32zM912.32 744.32h-295.36c-17.6 0-32-14.4-32-32s14.4-32 32-32h295.36c17.6 0 32 14.4 32 32s-14.4 32-32 32z" />
<glyph unicode="&#xe943;" glyph-name="insert-row" d="M856.32 460.16h-685.76c-17.6 0-32-14.4-32-32v-340.48c0-17.6 14.4-32 32-32h685.76c17.6 0 32 14.4 32 32v340.48c0 17.6-14.4 32-32 32zM824.32 284.8h-278.72v111.36h278.72v-111.36zM481.6 396.16v-111.36h-279.040v111.36h278.72zM202.88 220.8h278.72v-101.12h-279.040v101.12zM545.6 119.68v101.12h278.72v-101.12h-278.72zM385.92 761.6h455.36c17.673 0 32-14.327 32-32v-144.32c0-17.673-14.327-32-32-32h-455.36c-17.673 0-32 14.327-32 32v144.32c0 17.673 14.327 32 32 32zM228.8 552.32c6.080-4.8 13.12-7.36 20.16-7.36 9.28 0 18.56 3.84 24.64 11.84 11.2 13.76 9.28 33.92-4.48 45.12l-67.2 55.040 69.76 50.24c14.4 10.24 17.6 30.4 7.040 44.8-10.24 14.4-30.4 17.6-44.8 7.040l-102.4-73.92c-14.4-10.24-17.6-30.4-7.040-44.8 0 0 0.64-0.32 0.64-0.64 1.92-3.2 4.16-6.4 7.36-8.96l96-78.72z" />
<glyph unicode="&#xe944;" glyph-name="append-row" d="M853.44 784.96h-685.76c-17.6 0-32-14.4-32-32v-340.48c0-17.6 14.4-32 32-32h685.76c17.6 0 32 14.4 32 32v340.48c0 17.6-14.4 32-32 32zM821.44 609.6h-278.72v111.36h278.72v-111.36zM478.72 720.96v-111.36h-279.040v111.36h278.72zM200 545.6h278.72v-101.12h-279.040v101.12zM542.72 444.48v101.12h278.72v-101.12h-278.72zM393.28 285.44h455.36c17.673 0 32-14.327 32-32v-144.32c0-17.673-14.327-32-32-32h-455.36c-17.673 0-32 14.327-32 32v144.32c0 17.673 14.327 32 32 32zM284.48 275.84c-10.24 14.4-30.4 17.6-44.8 7.040l-102.4-73.92c-14.4-10.24-17.6-30.4-7.040-44.8 0 0 0.64-0.32 0.64-0.64 1.92-3.2 4.16-6.4 7.36-8.96l96-78.72c6.080-4.8 13.12-7.36 20.16-7.36 9.28 0 18.56 3.84 24.64 11.84 11.2 13.76 9.28 33.92-4.48 45.12l-67.2 55.040 69.76 50.24c14.4 10.24 17.6 30.4 7.040 44.8z" />
<glyph unicode="&#xe945;" glyph-name="search" d="M974.72 30.4l-250.56 250.56c57.6 67.84 92.16 155.2 92.16 250.88 0 214.080-174.080 388.48-388.48 388.48-213.76 0-388.16-174.4-388.16-388.48s174.080-388.48 388.48-388.48c95.68 0 183.040 34.88 250.88 92.48l250.56-250.56c6.4-6.4 14.4-9.28 22.72-9.28s16.32 3.2 22.72 9.28c12.48 12.48 12.48 32.64 0 45.12zM103.68 531.84c0 178.88 145.6 324.48 324.48 324.48s324.16-145.6 324.16-324.48c0-86.72-34.24-165.12-89.92-223.36-2.24-1.28-4.8-2.56-6.72-4.48s-3.2-4.48-4.48-6.72c-58.24-55.36-136.96-89.92-223.36-89.92-178.88 0-324.48 145.6-324.48 324.48z" />
<glyph unicode="&#xe954;" glyph-name="filter-copy" d="M760.96 730.88v-402.88h-312.64v402.88h312.64zM792.96 794.88h-376.64c-17.6 0-32-14.4-32-32v-466.88c0-17.6 14.4-32 32-32h376.64c17.6 0 32 14.4 32 32v466.88c0 17.6-14.4 32-32 32v0zM577.28 69.12h-378.24c-8.64 0-16.64 3.52-22.72 9.28s-9.28 14.080-9.28 22.72v466.56c0 8.64 3.52 16.64 9.6 22.72s14.080 9.28 22.72 9.28h120c17.6 0 32-14.4 32-32s-14.4-32-32-32h-88s0-402.56 0-402.56h314.24s0 74.88 0 74.88c0 17.6 14.4 32 32 32v0c17.6 0 32-14.4 32-32v-106.88c0-17.6-14.4-32-32-32z" />
<glyph unicode="&#xe955;" glyph-name="filter-paste" d="M416.32 794.88h376.64c17.673 0 32-14.327 32-32v-466.88c0-17.673-14.327-32-32-32h-376.64c-17.673 0-32 14.327-32 32v466.88c0 17.673 14.327 32 32 32zM577.28 69.12h-378.24c-8.64 0-16.64 3.52-22.72 9.28s-9.28 14.080-9.28 22.72v466.56c0 8.64 3.52 16.64 9.6 22.72s14.080 9.28 22.72 9.28h120c17.6 0 32-14.4 32-32s-14.4-32-32-32h-88s0-402.56 0-402.56h314.24s0 74.88 0 74.88c0 17.6 14.4 32 32 32v0c17.6 0 32-14.4 32-32v-106.88c0-17.6-14.4-32-32-32z" />
<glyph unicode="&#xe956;" glyph-name="filter-redo" d="M666.56 569.28h-63.68c-22.4 0-40.32-18.24-40.32-40.32s18.24-40.32 40.32-40.32h161.92c22.4 0 40.32 18.24 40.32 40.32v161.92c0 22.4-18.24 40.32-40.32 40.32s-40.32-18.24-40.32-40.32v-64.64l-22.4 22.4c-110.72 110.72-289.92 110.72-400.64 0s-110.72-289.92 0-400.64c110.72-110.72 289.92-110.72 400.64 0 15.68 15.68 15.68 41.6 0 57.28s-41.6 15.68-57.28 0c-79.040-79.040-207.040-79.040-286.080 0s-79.040 207.040 0 286.080 207.040 79.040 286.080 0l21.76-21.76z" />
<glyph unicode="&#xe957;" glyph-name="filter-undo" d="M357.44 569.28h63.68c22.4 0 40.32-18.24 40.32-40.32s-18.24-40.32-40.32-40.32h-161.92c-22.4 0-40.32 18.24-40.32 40.32v161.92c0 22.4 18.24 40.32 40.32 40.32s40.32-18.24 40.32-40.32v-64.64l22.4 22.4c110.72 110.72 289.92 110.72 400.64 0s110.72-289.92 0-400.64-289.92-110.72-400.64 0c-15.68 15.68-15.68 41.6 0 57.28s41.6 15.68 57.28 0c79.040-79.040 207.040-79.040 286.080 0s79.040 207.040 0 286.080-207.040 79.040-286.080 0l-21.76-21.76z" />
<glyph unicode="&#xe968;" glyph-name="filter-cut" d="M516.16 519.36l-44.16 44.16c5.44 14.080 8.32 29.12 8.32 45.12 0 69.12-56 124.8-124.8 124.8s-124.8-56-124.8-124.8 56-124.8 124.8-124.8c16 0 31.040 2.88 45.12 8.32l44.16-44.16-44.16-44.16c-14.080 5.44-29.12 8.32-45.12 8.32-69.12 0-124.8-56-124.8-124.8s56-124.8 124.8-124.8 124.8 56 124.8 124.8c0 16-2.88 31.040-8.32 45.12l315.2 315.2c8 8 8 20.48 0 28.48-31.68 31.68-82.56 31.68-114.24 0l-157.12-157.12zM541.44 351.36l131.84-131.84c31.68-31.68 82.56-31.68 114.24 0 8 8 8 20.48 0 28.48l-174.72 174.72-71.36-71.36zM302.080 608.64c0 29.44 24 53.44 53.44 53.44s53.44-24 53.44-53.44-24-53.44-53.44-53.44-53.44 24-53.44 53.44zM355.52 340.8c29.44 0 53.44-24 53.44-53.44s-24-53.44-53.44-53.44-53.44 24-53.44 53.44 24 53.44 53.44 53.44z" />
<glyph unicode="&#xe969;" glyph-name="__filter-reset" d="M223.68 493.44c-3.84 0-7.36 0.64-11.2 1.6-21.12 6.080-33.6 28.16-27.52 49.6 39.36 136.32 134.4 196.8 207.040 223.36 73.6 26.88 153.92 26.88 225.6 0 162.88-61.12 205.12-217.92 207.040-224.32 5.44-21.44-7.36-43.2-28.8-48.64-21.12-5.44-43.2 7.36-48.64 28.48v0c-1.28 5.12-34.56 123.52-157.44 169.6-54.080 20.16-114.56 20.16-170.24 0-80.64-29.44-133.76-86.72-157.76-170.24-5.12-17.6-21.12-28.8-38.4-28.8zM841.28 477.44c-17.6 0-32 14.4-32 32v187.2c0 17.6 14.4 32 32 32s32-14.4 32-32v-187.2c0-17.6-14.4-32-32-32zM832.64 471.040h-187.2c-17.6 0-32 14.4-32 32s14.4 32 32 32h187.2c17.6 0 32-14.4 32-32s-14.4-32-32-32zM518.080 107.84c-38.4 0-76.16 6.72-112.32 20.16-162.88 61.12-205.12 217.92-207.040 224.32-5.44 21.44 7.36 43.2 28.8 48.64s43.2-7.36 48.64-28.48c1.6-5.76 34.88-123.84 157.44-169.6 54.080-20.16 114.56-20.16 170.24 0 80.64 29.44 133.76 86.72 157.76 170.24 6.080 21.12 28.48 33.6 49.6 27.52s33.6-28.16 27.52-49.6c-39.36-136.32-134.4-196.8-207.040-223.36-36.8-13.44-75.2-20.16-113.6-20.16zM182.72 167.040c-17.6 0-32 14.4-32 32v187.2c0 17.6 14.4 32 32 32s32-14.4 32-32v-187.2c0-17.6-14.4-32-32-32zM378.88 360.96h-187.2c-17.6 0-32 14.4-32 32s14.4 32 32 32h187.2c17.6 0 32-14.4 32-32s-14.4-32-32-32z" />
</font>
</defs>
</svg>
